<svg xmlns="http://www.w3.org/2000/svg" xmlns:xlink="http://www.w3.org/1999/xlink" width="64" height="64" version="1.1" viewBox="0 0 48 48"><g id="surface22245465"><path style="stroke:none;fill-rule:nonzero;fill:#455a64;fill-opacity:1" d="M 24.085938 0.484375 C 11.050781 0.484375 0.484375 11.050781 0.484375 24.085938 C 0.484375 37.121094 11.050781 47.683594 24.085938 47.683594 C 37.121094 47.683594 47.683594 37.121094 47.683594 24.085938 C 47.683594 11.050781 37.121094 0.484375 24.085938 0.484375 Z M 37.472656 13.761719 C 36.324219 13.800781 35.496094 13.125 35.496094 12.097656 C 35.496094 11.246094 36.03125 10.691406 36.023438 10.476562 C 36.003906 9.832031 35.011719 9.804688 34.742188 9.820312 C 31.023438 9.9375 30.164062 14.652344 29.371094 18.675781 L 29.0625 20.355469 C 31.203125 20.664062 32.722656 20.285156 33.570312 19.742188 C 34.765625 18.980469 33.40625 18.335938 33.433594 17.445312 C 33.460938 16.320312 34.480469 15.792969 35.128906 15.773438 C 36.039062 15.753906 36.976562 16.738281 36.976562 18.011719 C 36.976562 19.570312 34.460938 21.8125 30.261719 21.722656 C 29.75 21.710938 29.28125 21.675781 28.839844 21.625 L 28.007812 26.113281 C 27.296875 29.375 26.355469 33.835938 22.984375 37.726562 C 20.089844 41.121094 17.152344 41.652344 15.835938 41.691406 C 13.375 41.777344 11.125 40.261719 11.066406 38.535156 C 11.011719 36.863281 12.4375 35.761719 13.421875 35.761719 C 14.863281 35.761719 15.699219 36.808594 15.734375 37.894531 C 15.769531 38.808594 15.285156 39.09375 14.964844 39.265625 C 14.75 39.4375 14.425781 39.609375 14.4375 39.988281 C 14.445312 40.148438 14.621094 40.519531 15.167969 40.5 C 16.207031 40.464844 17.261719 40.203125 18.054688 39.632812 C 20.453125 37.660156 21.335938 34.4375 22.546875 28.183594 L 22.800781 26.671875 C 23.210938 24.636719 23.863281 21.855469 24.558594 19.597656 C 22.867188 18.34375 21.890625 16.839844 19.617188 16.234375 C 18.058594 15.816406 17.355469 15.949219 16.6875 16.78125 C 16.332031 17.226562 16.210938 17.726562 16.210938 18.21875 C 16.210938 20.09375 19.867188 23.789062 19.867188 26.027344 C 19.867188 26.292969 19.835938 26.5625 19.785156 26.847656 C 19.28125 29.796875 15.71875 32.058594 11.507812 30.78125 C 7.917969 29.6875 7.128906 27.148438 7.5625 25.761719 C 7.941406 24.546875 9.085938 24.136719 10.042969 24.425781 C 11.070312 24.738281 11.519531 26.042969 11.132812 27.128906 C 11.09375 27.226562 11.082031 27.265625 10.972656 27.492188 C 10.855469 27.75 10.632812 27.980469 10.539062 28.285156 C 10.304688 29.023438 11.335938 29.550781 12.054688 29.769531 C 13.664062 30.257812 15.230469 29.429688 15.632812 28.148438 C 16 26.96875 15.464844 26.144531 15.152344 25.828125 C 15.152344 25.828125 12.167969 21.96875 12.167969 19.832031 C 12.167969 19.367188 12.214844 18.878906 12.367188 18.378906 C 12.65625 17.460938 13.261719 16.480469 14.144531 15.828125 C 16.003906 14.464844 17.839844 14.292969 19.765625 14.839844 C 22.257812 15.546875 23.414062 17.117188 24.96875 18.371094 C 25.835938 15.859375 26.785156 14.078125 28.59375 12.003906 C 30.226562 10.113281 32.425781 8.746094 34.941406 8.660156 C 37.453125 8.578125 39.277344 9.710938 39.34375 11.492188 C 39.371094 12.25 39.003906 13.710938 37.472656 13.761719 Z M 37.472656 13.761719"/></g></svg>